<?xml version="1.0" encoding="utf-8"?>
<!-- Generated by Mocodo 4.3.2 -->
<svg width="508" height="136" viewBox="0 0 508 136" xmlns="http://www.w3.org/2000/svg">
<rect x="0" y="0" width="508" height="136" fill="#f5f5f5" stroke="none" stroke-width="0"/>

<!-- Association CATEGORISE -->
<g>
	<line x1="257" y1="68" x2="137" y2="68" stroke="#bf812d" stroke-width="2"/>
	<line x1="33" y1="68" x2="137" y2="68" stroke="#bf812d" stroke-width="2"/>
	<g>
		<path d="M171 43 a14 14 90 0 1 14 14 V68 h-96 V57 a14 14 90 0 1 14 -14" fill="#dfc27d" stroke="#dfc27d" stroke-width="0"/>
		<path d="M185 68 v11 a14 14 90 0 1 -14 14 H103 a14 14 90 0 1 -14 -14 V68 H96" fill="#f6e8c3" stroke="#f6e8c3" stroke-width="0"/>
		<rect x="89" y="43" width="96" height="50" fill="none" rx="14" stroke="#bf812d" stroke-width="2"/>
		<line x1="89" y1="68" x2="185" y2="68" stroke="#bf812d" stroke-width="1"/>
		<text x="97" y="60.75" fill="#000000" font-family="Verdana" font-size="12">CATEGORISE</text>
	</g>
	<text x="190" y="85" fill="#01665e" font-family="Verdana" font-size="12">0,N</text>
	<text x="62" y="85" fill="#01665e" font-family="Verdana" font-size="12">0,N</text>
</g>

<!-- Association CONTAINS -->
<g>
	<line x1="470" y1="68" x2="369" y2="68" stroke="#bf812d" stroke-width="2"/>
	<line x1="257" y1="68" x2="369" y2="68" stroke="#bf812d" stroke-width="2"/>
	<g>
		<path d="M395 43 a14 14 90 0 1 14 14 V68 h-80 V57 a14 14 90 0 1 14 -14" fill="#dfc27d" stroke="#dfc27d" stroke-width="0"/>
		<path d="M409 68 v11 a14 14 90 0 1 -14 14 H343 a14 14 90 0 1 -14 -14 V68 H80" fill="#f6e8c3" stroke="#f6e8c3" stroke-width="0"/>
		<rect x="329" y="43" width="80" height="50" fill="none" rx="14" stroke="#bf812d" stroke-width="2"/>
		<line x1="329" y1="68" x2="409" y2="68" stroke="#bf812d" stroke-width="1"/>
		<text x="336" y="60.75" fill="#000000" font-family="Verdana" font-size="12">CONTAINS</text>
	</g>
	<text x="414" y="85" fill="#01665e" font-family="Verdana" font-size="12">0,N</text>
	<text x="302" y="85" fill="#01665e" font-family="Verdana" font-size="12">1,1</text>
</g>

<!-- Entity LABEL -->
<g>
	<g>
		<rect x="9" y="34" width="48" height="25" fill="#80cdc1" stroke="none" stroke-width="0" opacity="1"/>
		<rect x="9" y="59" width="48" height="43" fill="#c7eae5" stroke="none" stroke-width="0" opacity="1"/>
		<rect x="9" y="34" width="48" height="68" fill="none" stroke="#35978f" stroke-width="2" opacity="1"/>
		<line x1="9" y1="59" x2="57" y2="59" stroke="#35978f" stroke-width="1"/>
	</g>
	<text x="14" y="51.75" fill="#000000" font-family="Verdana" font-size="12">LABEL</text>
	<text x="14" y="76.8" fill="#000000" font-family="Verdana" font-size="12">name</text>
	<line x1="14" y1="79" x2="49" y2="79" stroke="#000000" stroke-width="1"/>
	<text x="14" y="93.8" fill="#000000" font-family="Verdana" font-size="12">color</text>
</g>

<!-- Entity TASK -->
<g>
	<g>
		<rect x="217" y="9" width="80" height="25" fill="#80cdc1" stroke="none" stroke-width="0" opacity="1"/>
		<rect x="217" y="34" width="80" height="93" fill="#c7eae5" stroke="none" stroke-width="0" opacity="1"/>
		<rect x="217" y="9" width="80" height="118" fill="none" stroke="#35978f" stroke-width="2" opacity="1"/>
		<line x1="217" y1="34" x2="297" y2="34" stroke="#35978f" stroke-width="1"/>
	</g>
	<text x="241" y="26.75" fill="#000000" font-family="Verdana" font-size="12">TASK</text>
	<text x="222" y="51.8" fill="#000000" font-family="Verdana" font-size="12">title</text>
	<line x1="222" y1="54" x2="246" y2="54" stroke="#000000" stroke-width="1"/>
	<text x="222" y="68.8" fill="#000000" font-family="Verdana" font-size="12">color</text>
	<text x="222" y="85.8" fill="#000000" font-family="Verdana" font-size="12">position</text>
	<text x="222" y="102.8" fill="#000000" font-family="Verdana" font-size="12">created_at</text>
	<text x="222" y="119.8" fill="#000000" font-family="Verdana" font-size="12">updated_at</text>
</g>

<!-- Entity LIST -->
<g>
	<g>
		<rect x="441" y="34" width="58" height="25" fill="#80cdc1" stroke="none" stroke-width="0" opacity="1"/>
		<rect x="441" y="59" width="58" height="43" fill="#c7eae5" stroke="none" stroke-width="0" opacity="1"/>
		<rect x="441" y="34" width="58" height="68" fill="none" stroke="#35978f" stroke-width="2" opacity="1"/>
		<line x1="441" y1="59" x2="499" y2="59" stroke="#35978f" stroke-width="1"/>
	</g>
	<text x="456" y="51.75" fill="#000000" font-family="Verdana" font-size="12">LIST</text>
	<text x="446" y="76.8" fill="#000000" font-family="Verdana" font-size="12">name</text>
	<line x1="446" y1="79" x2="481" y2="79" stroke="#000000" stroke-width="1"/>
	<text x="446" y="93.8" fill="#000000" font-family="Verdana" font-size="12">position</text>
</g>
</svg>