<?xml version="1.0" encoding="utf-8"?>
<!-- Generated by Mocodo 4.3.2 -->
<svg width="562" height="136" viewBox="0 0 562 136" xmlns="http://www.w3.org/2000/svg">
<rect x="0" y="0" width="562" height="136" fill="#f5f5f5" stroke="none" stroke-width="0"/>

<!-- Association CATEGORISE -->
<g>
	<line x1="289" y1="68" x2="169" y2="68" stroke="#bf812d" stroke-width="2"/>
	<line x1="49" y1="68" x2="169" y2="68" stroke="#bf812d" stroke-width="2"/>
	<g>
		<path d="M203 43 a14 14 90 0 1 14 14 V68 h-96 V57 a14 14 90 0 1 14 -14" fill="#dfc27d" stroke="#dfc27d" stroke-width="0"/>
		<path d="M217 68 v11 a14 14 90 0 1 -14 14 H135 a14 14 90 0 1 -14 -14 V68 H96" fill="#f6e8c3" stroke="#f6e8c3" stroke-width="0"/>
		<rect x="121" y="43" width="96" height="50" fill="none" rx="14" stroke="#bf812d" stroke-width="2"/>
		<line x1="121" y1="68" x2="217" y2="68" stroke="#bf812d" stroke-width="1"/>
		<text x="129" y="60.75" fill="#000000" font-family="Verdana" font-size="12">CATEGORISE</text>
	</g>
	<text x="222" y="85" fill="#01665e" font-family="Verdana" font-size="12">0,N</text>
	<text x="94" y="85" fill="#01665e" font-family="Verdana" font-size="12">0,N</text>
</g>

<!-- Association CONTAINS -->
<g>
	<line x1="513" y1="68" x2="401" y2="68" stroke="#bf812d" stroke-width="2"/>
	<line x1="289" y1="68" x2="401" y2="68" stroke="#bf812d" stroke-width="2"/>
	<g>
		<path d="M427 43 a14 14 90 0 1 14 14 V68 h-80 V57 a14 14 90 0 1 14 -14" fill="#dfc27d" stroke="#dfc27d" stroke-width="0"/>
		<path d="M441 68 v11 a14 14 90 0 1 -14 14 H375 a14 14 90 0 1 -14 -14 V68 H80" fill="#f6e8c3" stroke="#f6e8c3" stroke-width="0"/>
		<rect x="361" y="43" width="80" height="50" fill="none" rx="14" stroke="#bf812d" stroke-width="2"/>
		<line x1="361" y1="68" x2="441" y2="68" stroke="#bf812d" stroke-width="1"/>
		<text x="368" y="60.75" fill="#000000" font-family="Verdana" font-size="12">CONTAINS</text>
	</g>
	<text x="446" y="85" fill="#01665e" font-family="Verdana" font-size="12">0,N</text>
	<text x="334" y="85" fill="#01665e" font-family="Verdana" font-size="12">1,1</text>
</g>

<!-- Entity LABEL -->
<g>
	<g>
		<rect x="9" y="17" width="80" height="25" fill="#80cdc1" stroke="none" stroke-width="0" opacity="1"/>
		<rect x="9" y="42" width="80" height="77" fill="#c7eae5" stroke="none" stroke-width="0" opacity="1"/>
		<rect x="9" y="17" width="80" height="102" fill="none" stroke="#35978f" stroke-width="2" opacity="1"/>
		<line x1="9" y1="42" x2="89" y2="42" stroke="#35978f" stroke-width="1"/>
	</g>
	<text x="30" y="34.75" fill="#000000" font-family="Verdana" font-size="12">LABEL</text>
	<text x="14" y="59.8" fill="#000000" font-family="Verdana" font-size="12">name</text>
	<line x1="14" y1="62" x2="49" y2="62" stroke="#000000" stroke-width="1"/>
	<text x="14" y="76.8" fill="#000000" font-family="Verdana" font-size="12">color</text>
	<text x="14" y="93.8" fill="#000000" font-family="Verdana" font-size="12">created_at</text>
	<text x="14" y="110.8" fill="#000000" font-family="Verdana" font-size="12">updated_at</text>
</g>

<!-- Entity TASK -->
<g>
	<g>
		<rect x="249" y="9" width="80" height="25" fill="#80cdc1" stroke="none" stroke-width="0" opacity="1"/>
		<rect x="249" y="34" width="80" height="93" fill="#c7eae5" stroke="none" stroke-width="0" opacity="1"/>
		<rect x="249" y="9" width="80" height="118" fill="none" stroke="#35978f" stroke-width="2" opacity="1"/>
		<line x1="249" y1="34" x2="329" y2="34" stroke="#35978f" stroke-width="1"/>
	</g>
	<text x="273" y="26.75" fill="#000000" font-family="Verdana" font-size="12">TASK</text>
	<text x="254" y="51.8" fill="#000000" font-family="Verdana" font-size="12">title</text>
	<line x1="254" y1="54" x2="278" y2="54" stroke="#000000" stroke-width="1"/>
	<text x="254" y="68.8" fill="#000000" font-family="Verdana" font-size="12">color</text>
	<text x="254" y="85.8" fill="#000000" font-family="Verdana" font-size="12">position</text>
	<text x="254" y="102.8" fill="#000000" font-family="Verdana" font-size="12">created_at</text>
	<text x="254" y="119.8" fill="#000000" font-family="Verdana" font-size="12">updated_at</text>
</g>

<!-- Entity LIST -->
<g>
	<g>
		<rect x="473" y="17" width="80" height="25" fill="#80cdc1" stroke="none" stroke-width="0" opacity="1"/>
		<rect x="473" y="42" width="80" height="77" fill="#c7eae5" stroke="none" stroke-width="0" opacity="1"/>
		<rect x="473" y="17" width="80" height="102" fill="none" stroke="#35978f" stroke-width="2" opacity="1"/>
		<line x1="473" y1="42" x2="553" y2="42" stroke="#35978f" stroke-width="1"/>
	</g>
	<text x="499" y="34.75" fill="#000000" font-family="Verdana" font-size="12">LIST</text>
	<text x="478" y="59.8" fill="#000000" font-family="Verdana" font-size="12">name</text>
	<line x1="478" y1="62" x2="513" y2="62" stroke="#000000" stroke-width="1"/>
	<text x="478" y="76.8" fill="#000000" font-family="Verdana" font-size="12">position</text>
	<text x="478" y="93.8" fill="#000000" font-family="Verdana" font-size="12">created_at</text>
	<text x="478" y="110.8" fill="#000000" font-family="Verdana" font-size="12">updated_at</text>
</g>
</svg>